<mxfile host="app.diagrams.net" modified="2023-09-23T08:40:50.646Z" agent="Mozilla/5.0 (Windows NT 10.0; Win64; x64) AppleWebKit/537.36 (KHTML, like Gecko) Chrome/116.0.0.0 Safari/537.36" version="21.7.2" etag="Z8NYnXEh_eVNd33ukC_7" type="github">
  <diagram name="Page-1" id="713ZBYFqUzepsXUH86Or">
    <mxGraphModel>
      <root>
        <mxCell id="0" />
        <mxCell id="1" parent="0" />
      </root>
    </mxGraphModel>
  </diagram>
</mxfile>
